<svg width="36" height="36" viewBox="0 0 36 36" fill="none" xmlns="http://www.w3.org/2000/svg">
<path fill-rule="evenodd" clip-rule="evenodd" d="M19.3654 4.7762L30.2488 15.6597C31.2504 16.6612 31.2504 18.3304 30.2488 19.3654L19.3654 30.2488C18.3304 31.2504 16.6612 31.2504 15.6597 30.2488L4.7762 19.3654C3.74127 18.3304 3.74127 16.6612 4.7762 15.6597L15.6597 4.7762C16.6612 3.74127 18.3304 3.74127 19.3654 4.7762Z" fill="#E40520"/>
<path fill-rule="evenodd" clip-rule="evenodd" d="M22.4034 9.2832C22.4034 9.2832 22.4368 16.1271 22.4034 17.596C22.4034 18.1636 21.8693 18.6643 21.3017 18.6643C21.2016 18.6643 21.1014 18.6643 21.068 18.6643H15.7932L22.4034 9.2832Z" fill="white"/>
<path fill-rule="evenodd" clip-rule="evenodd" d="M22.2031 9.2832L13.6232 18.631H8.71563C8.48193 18.631 8.31501 18.4307 8.38178 18.197C8.41516 18.0634 8.5487 17.9299 8.64886 17.8631C10.1846 16.8949 22.2031 9.2832 22.2031 9.2832Z" fill="white"/>
</svg>
