<svg width="36" height="36" viewBox="0 0 36 36" fill="none" xmlns="http://www.w3.org/2000/svg">
<g clip-path="url(#clip0)">
<path fill-rule="evenodd" clip-rule="evenodd" d="M27.5166 17.5047C27.5166 17.5047 27.1288 16.9092 25.3806 16.7685C25.3806 16.7685 23.2391 16.5844 22.3566 17.6671C22.3566 17.6671 21.2773 18.6848 21.682 21.0937C21.682 21.0937 21.935 22.6798 23.8293 23.2861H27.9888V19.4968H25.0884V22.0627C25.0884 22.0627 25.0715 22.2305 24.7904 22.2359C24.7904 22.2359 24.515 22.2305 24.4982 22.0627C24.4813 21.8949 24.4982 18.4683 24.4982 18.4683C24.4982 18.4683 24.515 17.6075 25.8584 17.7104C25.8584 17.7104 26.7915 17.7266 27.511 18.2842V17.5047H27.5166Z" fill="#0033AB"/>
<path fill-rule="evenodd" clip-rule="evenodd" d="M15.021 17.0229H17.5111L19.7482 19.0367V17.0229H20.923V23.2861H18.3711L16.3363 21.4077V23.2861H15.021V17.0229Z" fill="#0033AB"/>
<path fill-rule="evenodd" clip-rule="evenodd" d="M7.00552 17.0229V23.2861H8.1241V21.5701L9.58556 22.7123L11.3899 20.9963V23.2861H14.2903V17.0229H11.9632L10.6479 18.1651L9.44503 17.0229H7.00552Z" fill="#0033AB"/>
<path fill-rule="evenodd" clip-rule="evenodd" d="M7 24.9858H8.40525V27.3785L9.43389 26.2634H11.1314L9.84422 27.4435L11.2045 29.6358H9.6531L8.928 28.2825L8.40525 28.7589V29.6358H7V24.9858Z" fill="#ED6E00"/>
<path fill-rule="evenodd" clip-rule="evenodd" d="M12.8796 27.3569L11.5643 27.2269C11.6149 27.0104 11.688 26.8426 11.7779 26.7181C11.8734 26.5936 12.0084 26.4853 12.1826 26.3933C12.3063 26.3283 12.4805 26.2742 12.7054 26.2417C12.9246 26.2038 13.1663 26.1876 13.4192 26.1876C13.8296 26.1876 14.1612 26.2092 14.4141 26.2526C14.6615 26.2959 14.8751 26.3879 15.0381 26.5232C15.1561 26.6207 15.246 26.756 15.3135 26.9292C15.3809 27.1024 15.4147 27.2702 15.4147 27.4272V28.9159C15.4147 29.0729 15.4259 29.1974 15.4484 29.2894C15.4709 29.3814 15.5158 29.4951 15.5889 29.6359H14.2961C14.2455 29.5492 14.2118 29.4843 14.1949 29.441C14.1781 29.3977 14.1612 29.3273 14.1499 29.2299C13.9701 29.3923 13.7902 29.5059 13.6103 29.5763C13.3686 29.6683 13.082 29.7171 12.7616 29.7171C12.3344 29.7171 12.0084 29.625 11.7835 29.4356C11.5587 29.2515 11.4519 29.0187 11.4519 28.7427C11.4519 28.4882 11.5306 28.2771 11.6936 28.1093C11.851 27.9415 12.1489 27.8224 12.5817 27.7412C13.0988 27.6438 13.4361 27.5734 13.5878 27.5355C13.7396 27.4976 13.9026 27.4435 14.0769 27.3839C14.0769 27.2269 14.0431 27.1133 13.9701 27.0483C13.9026 26.9833 13.779 26.9509 13.6047 26.9509C13.3799 26.9509 13.2112 26.9833 13.0988 27.0537C13.0033 27.1079 12.9302 27.2107 12.8796 27.3569ZM14.0713 28.0335C13.8801 28.0985 13.6834 28.1526 13.4754 28.2013C13.1944 28.2717 13.0201 28.3421 12.9414 28.407C12.8627 28.4774 12.8234 28.5586 12.8234 28.6452C12.8234 28.7481 12.8627 28.8293 12.9358 28.8942C13.0089 28.9592 13.1213 28.9917 13.2675 28.9917C13.4192 28.9917 13.5654 28.9538 13.6946 28.8834C13.8296 28.813 13.9195 28.7264 13.9757 28.6236C14.0319 28.5207 14.06 28.3908 14.06 28.2284V28.0335H14.0713Z" fill="#ED6E00"/>
<path fill-rule="evenodd" clip-rule="evenodd" d="M16.2465 26.2634H17.5393V26.8155C17.663 26.5773 17.7923 26.4149 17.9272 26.3229C18.0621 26.2309 18.2251 26.1876 18.4162 26.1876C18.6186 26.1876 18.8434 26.2471 19.0851 26.3662L18.6579 27.2811C18.4949 27.2161 18.3656 27.1836 18.2701 27.1836C18.0902 27.1836 17.9497 27.254 17.8485 27.3948C17.708 27.5896 17.6349 27.9631 17.6349 28.4991V29.6304H16.2465V26.2634Z" fill="#ED6E00"/>
<path fill-rule="evenodd" clip-rule="evenodd" d="M21.9293 26.2634H23.2165V29.4464L23.2222 29.5979C23.2222 29.8091 23.1716 30.0093 23.076 30.2042C22.9805 30.3937 22.8512 30.5507 22.6938 30.6698C22.5364 30.7889 22.334 30.8755 22.0867 30.9242C21.8394 30.9783 21.564 31.0054 21.2436 31.0054C20.5241 31.0054 20.0238 30.9025 19.754 30.7022C19.4842 30.4965 19.3493 30.2259 19.3493 29.8848C19.3493 29.8415 19.3493 29.7874 19.3549 29.7116L20.6927 29.8524C20.7264 29.966 20.777 30.0472 20.8501 30.0905C20.9513 30.1555 21.0806 30.188 21.2323 30.188C21.4291 30.188 21.5808 30.1393 21.6764 30.0418C21.7719 29.9444 21.8225 29.7712 21.8225 29.5222V29.0133C21.6876 29.1649 21.5527 29.2731 21.4178 29.3381C21.2042 29.4464 20.9794 29.4951 20.7321 29.4951C20.2543 29.4951 19.8664 29.3002 19.5685 28.905C19.3605 28.6236 19.2537 28.2555 19.2537 27.7953C19.2537 27.2702 19.3886 26.8697 19.6584 26.5936C19.9283 26.3175 20.2824 26.1822 20.7208 26.1822C21.0019 26.1822 21.2323 26.2255 21.4122 26.3175C21.5921 26.4041 21.7663 26.5557 21.9237 26.7614V26.2634H21.9293ZM20.6309 27.8982C20.6309 28.1418 20.6871 28.3204 20.7995 28.4395C20.9119 28.5586 21.0581 28.6181 21.2379 28.6181C21.4122 28.6181 21.5527 28.5586 21.6708 28.4341C21.7888 28.315 21.845 28.1309 21.845 27.8819C21.845 27.6383 21.7832 27.4489 21.6595 27.319C21.5359 27.189 21.3897 27.1241 21.2098 27.1241C21.0356 27.1241 20.8951 27.1836 20.7883 27.3027C20.6815 27.4218 20.6309 27.6221 20.6309 27.8982Z" fill="#ED6E00"/>
<path fill-rule="evenodd" clip-rule="evenodd" d="M23.8743 27.9577C23.8743 27.4435 24.0598 27.0212 24.4307 26.6856C24.8017 26.35 25.302 26.1876 25.9259 26.1876C26.6454 26.1876 27.185 26.3825 27.556 26.7776C27.8539 27.0916 28.0001 27.4814 28.0001 27.9415C28.0001 28.4612 27.8146 28.8834 27.4492 29.219C27.0838 29.5492 26.578 29.7171 25.9315 29.7171C25.3526 29.7171 24.886 29.5817 24.5319 29.3056C24.0935 28.9592 23.8743 28.5099 23.8743 27.9577ZM25.2514 27.9577C25.2514 28.2609 25.3132 28.4828 25.4425 28.6236C25.5718 28.7697 25.7348 28.8401 25.9315 28.8401C26.1283 28.8401 26.2913 28.7697 26.4206 28.629C26.5499 28.4882 26.6117 28.2609 26.6117 27.9469C26.6117 27.6546 26.5499 27.4381 26.4206 27.2919C26.2913 27.1512 26.1339 27.0754 25.9428 27.0754C25.7404 27.0754 25.5774 27.1457 25.4481 27.2919C25.3189 27.4381 25.2514 27.66 25.2514 27.9577Z" fill="#ED6E00"/>
<path d="M8.95605 14.6681C9.25397 14.3271 10.3051 14.0997 11.0583 14.1051C11.8115 14.1106 12.1038 14.4462 12.5985 14.4895C13.0931 14.5274 13.717 14.4516 13.97 14.365C14.74 14.0997 15.2853 13.867 15.4427 13.4772C15.6057 13.0874 15.2347 12.6111 14.7513 11.994C14.2679 11.3768 13.7395 10.6623 13.7676 9.95857C13.7901 9.25484 13.8913 8.74599 14.9031 7.7716C15.9148 6.79721 16.0441 6.74849 16.3589 6.34791C16.6737 5.94732 16.9379 5.67125 17.0952 5C17.4437 5.46013 17.2301 6.20175 17.084 6.61316C17.1908 6.50489 17.3145 6.42369 17.6573 5.95274C17.6911 6.31001 17.6686 6.72684 17.3145 7.38184C17.6349 7.1599 17.7135 7.08411 17.9946 6.7106C18.1239 7.19779 17.8822 7.8528 17.6011 8.48615C17.8934 8.26962 18.0396 8.16677 18.3487 7.79867C18.4387 8.47533 18.0396 9.30356 17.4325 9.74204C17.6798 9.74204 17.9159 9.6067 18.2869 9.30356C18.1351 9.8882 18.062 10.397 17.4325 10.8409C17.7529 10.6569 17.8485 10.5973 18.2588 10.1426C18.2307 10.5432 18.2026 11.0899 17.5562 11.6746C18.0171 11.5014 17.9665 11.5392 18.3993 10.9005C18.4611 11.5176 18.1913 12.0968 18.1801 12.3675C18.1745 12.6381 19.2368 11.8262 19.9844 11.3768C20.6927 10.9492 21.1255 11.0629 21.6314 11.1441C22.1429 11.2253 22.6488 11.4256 23.0985 11.5068C23.5538 11.5826 24.0034 11.5609 24.425 11.5771C24.1833 11.9669 23.8236 12.1888 22.6994 12.1672C22.8343 12.27 23.1603 12.3025 23.5762 12.4162C22.8905 12.741 22.1991 12.6598 21.6932 12.5407C21.8394 12.6706 22.0248 12.8222 22.4183 13.0062C21.7831 13.2011 21.429 13.082 21.0749 12.9684C21.266 13.1253 21.4403 13.2444 21.7157 13.2986C21.3391 13.6017 20.8894 13.5259 20.4397 13.4555C20.5521 13.553 20.6702 13.6504 21.0918 13.7695C20.6027 13.9049 19.8664 13.9915 18.8771 13.5638C19.2087 14.0131 19.5572 14.2892 19.8776 14.4895C20.198 14.6898 20.5184 14.7547 20.8051 14.7764C21.0918 14.798 21.4684 14.771 21.8394 14.679C21.7157 14.8792 21.682 14.9388 21.6482 14.9929C22.5926 14.9983 23.5369 15.0037 24.3238 14.9659C25.1108 14.928 25.5942 14.6681 25.8865 14.5978C26.145 14.5382 26.2631 15.2311 24.7847 15.3773C23.3064 15.5234 19.9395 15.4909 17.0222 15.4747C16.6905 15.7941 15.0042 16.016 14.4478 15.4531C14.4478 15.4531 13.7564 14.8576 12.9863 14.9225C12.9863 14.9225 12.3399 14.8792 12.0869 14.9496C11.8396 15.0308 11.092 15.7724 8.95605 14.6681Z" fill="#ED6E00"/>
</g>
<defs>
<clipPath id="clip0">
<rect width="21" height="26" fill="white" transform="translate(7 5)"/>
</clipPath>
</defs>
</svg>
