<svg width="36" height="36" viewBox="0 0 36 36" fill="none" xmlns="http://www.w3.org/2000/svg">
<path fill-rule="evenodd" clip-rule="evenodd" d="M18.2462 26C18.2462 26 10.1936 25.424 5 19.936L13.2272 15.184C13.2272 15.184 13.3861 22.656 20.9939 24.256C29.11 25.952 29.65 17.984 29.65 17.984L31 20.192C31 20.192 27.9188 27.216 19.6915 24.896C13.2749 23.072 11.6072 18.224 11.6072 18.224L8.00183 20.24C8.00183 20.24 11.5596 24.304 18.2462 26Z" fill="#005295"/>
<path fill-rule="evenodd" clip-rule="evenodd" d="M21.915 18.4C21.915 18.4 18.5002 19.008 15.6096 15.648C15.6096 15.648 16.7055 15.984 18.7861 16.176C18.7861 16.176 16.4037 14.992 15.3714 13.472C15.3714 13.472 16.1973 13.856 18.6908 14.032C18.6908 14.032 18.3255 13.696 17.2455 13.136C14.6884 11.584 13.9419 10 13.9419 10C15.1649 11.072 16.769 10.48 21.5338 12.032C27.5534 14.016 28.0299 16.176 28.1093 17.424C28.2363 19.184 26.5051 21.008 26.5051 21.008C26.5051 21.008 27.474 16.544 23.7574 14.576C19.7232 12.448 15.8161 11.536 15.8161 11.536C15.8161 11.536 16.0384 11.904 17.0549 12.512C17.0549 12.512 17.5314 12.768 17.7538 12.88C19.1356 13.52 19.9773 13.824 20.2791 14.576C20.2791 14.576 18.7861 14.928 17.2137 14.4C17.2137 14.4 18.2938 15.504 20.3585 16.704C20.3585 16.704 19.0403 17.104 17.452 16.576C17.452 16.576 19.0561 18.416 21.915 18.4Z" fill="#E42E2A"/>
</svg>
