<svg width="36" height="36" viewBox="0 0 36 36" fill="none" xmlns="http://www.w3.org/2000/svg">
<path fill-rule="evenodd" clip-rule="evenodd" d="M7.58041 13.0034L7.67709 24.0779L10.1423 27.1514L17.5381 31.1031L26.6255 26.6148L28.5107 22.0776L28.3174 7.39261L21.4534 7.19746L14.2996 8.36835L7.77405 12.1737L7.58041 13.0034Z" fill="#301506"/>
<path d="M18.1693 5.00022C13.8614 5.00022 10.1037 5.842 7 7.50203V20.7734C7 23.5659 8.03959 25.9011 10.0059 27.5279C11.8315 29.0394 17.4777 31.5303 18.1696 31.8328C18.8257 31.5446 24.5388 29.0152 26.3354 27.5279C28.3006 25.902 29.3405 23.5661 29.3405 20.7734V7.50203C26.2363 5.84178 22.4786 5 18.1689 5L18.1693 5.00022ZM24.5481 7.56992C25.8328 7.58687 27.0942 7.66697 28.3136 7.78134V20.7733C28.3136 23.27 27.416 25.2867 25.6841 26.7265C24.1369 28.0125 19.4714 30.1222 18.1696 30.7014C16.8503 30.1144 12.1731 27.978 10.6537 26.727C8.93208 25.3119 8.02586 23.2473 8.02586 20.7738V13.1824C12.9733 8.60297 18.9811 7.49673 24.5477 7.57022L24.5481 7.56992ZM18.4606 13.6195C17.4006 13.6195 16.5454 13.8586 15.8413 14.3173V27.0998H17.7853V22.9702C17.9793 23.028 18.2609 23.082 18.6599 23.082C20.8163 23.082 22.0557 21.1199 22.0557 18.2552C22.0557 15.3961 20.7795 13.6195 18.4606 13.6195L18.4606 13.6195ZM25.1031 13.6195C23.8246 13.6569 22.4876 14.5917 22.4958 16.1763C22.499 17.2197 22.7856 18 24.3878 18.9489C25.2429 19.4554 25.5874 19.7892 25.6021 20.4047C25.6185 21.089 25.1501 21.5016 24.4372 21.4988C23.8171 21.4939 23.0757 21.1465 22.5792 20.7004V22.506C23.1879 22.8724 23.9475 23.1145 24.7148 23.1145C26.6353 23.1145 27.4929 21.7453 27.5299 20.4906C27.5664 19.3471 27.2534 18.4818 25.6293 17.5187C24.9045 17.0897 24.3321 16.8077 24.3512 16.0937C24.3703 15.3968 24.9435 15.152 25.494 15.157C26.173 15.163 26.8298 15.5426 27.2353 15.9623V14.2571C26.8936 13.9915 26.1702 13.5864 25.1031 13.6194L25.1031 13.6195ZM9.01858 13.818V19.9838C9.01858 22.0624 9.99278 23.1147 11.9154 23.1147C13.1051 23.1147 14.1016 22.8368 14.8438 22.3274V13.8181H12.9041V21.2111C12.6926 21.3574 12.379 21.4508 11.9844 21.4508C11.0939 21.4508 10.9609 20.6267 10.9609 20.0706V13.8182H9.01854L9.01858 13.818ZM18.4737 15.1991C19.6012 15.1991 20.0686 16.1077 20.0686 18.3052C20.0686 20.4492 19.534 21.4851 18.4158 21.4851C18.1525 21.4851 17.9238 21.4193 17.7848 21.3665V15.3411C17.9423 15.2619 18.2099 15.1993 18.4737 15.1993V15.1991Z" fill="#FAB80A"/>
</svg>
