<svg width="36" height="36" viewBox="0 0 36 36" fill="none" xmlns="http://www.w3.org/2000/svg">
<path d="M21.6427 9.37425C21.9416 8.8547 21.4269 8.2681 20.5136 8.06699C19.6004 7.86587 18.6041 8.11727 18.2555 8.62006L6.54951 26.1843C5.88534 27.1731 6.30045 28.4134 7.56237 28.8491C8.84089 29.2849 10.4017 28.7486 11.0326 27.6759L21.6427 9.37425Z" fill="#0069B4"/>
<path d="M2.54798 28.9335C2.00004 28.7324 1.834 28.1793 2.18269 27.71L8.82436 18.4754C9.3723 17.7212 8.82436 17.0508 8.82436 17.0508L2.78044 9.55917C2.39854 9.07314 2.83025 8.45303 3.74348 8.15135C4.64011 7.86644 5.68617 7.98376 6.10127 8.45303L12.2282 15.2407C12.2282 15.2407 12.7429 15.8106 12.2282 16.5815L4.17519 28.4139C3.84311 28.9 3.11252 29.1346 2.54798 28.9335Z" fill="#0069B4"/>
<path d="M29.6626 8.03352C29.2309 7.94972 28.9984 8.03352 28.683 8.26816L18.2721 16.2458C18.2721 16.2458 17.5415 16.8324 18.4216 17.7207L28.5169 28.0112C29.48 28.9832 31.157 29.2849 32.203 28.648C33.2325 28.0112 33.2325 26.7542 32.2529 25.8492L21.8586 16.1955C21.4767 15.8436 21.4269 15.7263 21.8254 15.4078L30.2437 8.62011C30.443 8.43576 30.0943 8.11732 29.6626 8.03352Z" fill="#EF7D00"/>
</svg>
