<svg xmlns="http://www.w3.org/2000/svg" width="136" height="144" viewBox="0 0 136 144">
    <g fill="none" fill-rule="evenodd">
        <path fill="#CDAD8A" d="M67.526 77.975L67.526 143.392 33.764 123.898 24.986 118.828 0 104.405 0 38.987 24.986 53.412 33.764 58.482 67.526 77.975"/>
        <path fill="#A48465" d="M135.053 38.987L135.053 104.405 109.231 119.315 100.453 124.378 67.526 143.392 67.526 77.975 100.453 58.96 109.231 53.898 135.053 38.987"/>
        <path fill="#F0CFA8" d="M135.053 38.987L67.526 77.975 34.014 58.619 34.006 58.619 25.228 53.557 0 38.987 33.097 19.875 41.883 14.805 67.526 0 92.755 14.569 101.533 19.632 135.053 38.987"/>
        <path fill="#E0C5A4" d="M33.764 58.482L33.764 123.898 24.986 118.828 24.986 53.412 33.764 58.482"/>
        <path fill="#F0DCC5" d="M109.231 53.89L100.453 58.96 67.112 39.71 58.327 34.64 32.864 19.969 41.65 14.897 67.112 29.569 75.89 34.64 109.231 53.89"/>
        <path fill="#F0DCC5" d="M101.429 19.527L67.008 39.41 67 39.41 33.911 58.515 33.901 58.515 33.659 58.661 24.881 53.591 25.125 53.453 58.222 34.34 67.008 29.27 92.651 14.465 101.429 19.527"/>
        <path fill="#8F6E4F" d="M134.113 41.276L68.754 79.01c-.168.097-.303.038-.303-.129 0-.168.135-.383.303-.48l65.36-37.734c.168-.097.304-.04.304.127 0 .168-.136.383-.305.48"/>
        <path fill="#BB9673" d="M109.231 53.898L109.231 119.315 100.453 124.378 100.453 58.96 109.231 53.898"/>
        <path fill="#E6D3BD" d="M104.415 56.322c-.22.126-.576.126-.796 0-16.028-9.176-51.65-29.86-66.22-38.326-.22-.128-.218-.333 0-.459l.002-.001c.221-.127.578-.126.797.001 14.57 8.466 50.19 29.15 66.215 38.324.221.125.222.332.004.46h-.002"/>
        <path fill="#7F6B59" d="M126.942 52.68c.024-.241-.006-.494-.006-.494s-.343.441-.432.709l-.014.052c-2.265 1.474-2.39 3.717-2.39 3.717l.02-.012c.05-.21.193-.42.36-.517.17-.097.311-.05.361.1l.043-.025c.05-.208.192-.42.36-.516.169-.097.31-.05.36.1l.043-.025c.05-.208.194-.419.36-.515.169-.098.31-.05.362.099l.043-.024c.028-.12.088-.24.165-.34v2.952c0 .156-.107.345-.238.42-.13.074-.237.01-.237-.146v-.474c0-.127-.087-.182-.195-.12-.108.063-.194.217-.194.345v.473c0 .412.281.586.626.386.346-.2.628-.697.628-1.11v-2.95l.166.148.04-.025c.051-.208.194-.42.362-.517.167-.097.31-.05.36.1l.042-.023c.052-.21.193-.42.362-.518.167-.097.31-.05.36.1l.043-.023c.05-.21.192-.42.36-.517.168-.097.31-.05.36.1l.022-.013s-.183-2.132-2.502-.897M125.523 53.385c.108 0 .243-.139.332-.407.089-.267.039-.711.039-.711s-.345.442-.434.709c-.089.269-.046.408.063.41M126.387 52.422c.108.001.243-.14.332-.406.089-.267.039-.711.039-.711s-.345.44-.434.709c-.089.267-.046.408.063.408M128.488 50.837c-.089.268-.046.408.062.408.11 0 .244-.14.332-.407.089-.267.04-.711.04-.711s-.345.44-.434.71"/>
        <path fill="#7F6B59" d="M128.625 51.87c-.09.266-.048.406.06.407.11 0 .244-.139.333-.407.089-.266.039-.711.039-.711s-.345.442-.432.71M127.351 51.29c.109.001.244-.14.333-.405.089-.268.037-.712.037-.712s-.343.441-.432.709c-.089.268-.046.408.062.408M127.537 51.778c-.089.267-.047.408.062.41.109 0 .243-.14.331-.409.09-.266.039-.71.039-.71s-.343.441-.432.709M128.303 50.278c.108 0 .244-.14.332-.407.09-.268.039-.713.039-.713s-.345.442-.432.71c-.09.268-.048.408.06.41"/>
        <path fill="#7F6B59" d="M122.66 61.694l8.223-4.748v-9.808l-8.223 4.75v9.806zm8.365-4.494l-8.505 4.91-.142-.086V51.88l.142-.249 8.505-4.91.14.086v10.143l-.14.25zM120.584 62.87l-8.223 4.749v-9.807l8.223-4.748v9.807zm.14-10.223l-8.505 4.911-.14.25v10.14l.14.088 8.505-4.91.14-.25V52.734l-.14-.087z"/>
        <path fill="#7F6B59" d="M116.227 60.116v2.953l-1.102 1.095 1.522-.879 1.137-.656-1.137.198V59.88c.567-.369 1.077-.954 1.455-1.622.41-.722.66-1.54.66-2.285l-2.897 1.674-.259.608.481-.048-.821 1.663.139-1.019-.28-.067.165-.805-1.11.64c0 1.402.899 2.033 2.047 1.497M116.472 68.851L115.002 70.712 116.472 70.875 117.941 69.014 116.472 68.851M114.968 72.552L116.437 72.715 116.437 70.963 114.968 70.8 114.968 72.552M117.986 69.058L116.517 70.917 116.517 72.67 117.986 70.81 117.986 69.058M114.793 73.216c-.07-.053-.188.005-.27.131l-.083.226.077.214.697.487.01.188-.09.098-.084.005-.688-.477-.064-.155v-.688c.004-.1 0-.197 0-.317v-1.033c0-.228-.155-.322-.345-.213-.19.11-.344.384-.344.61v1.907c0 .342.09.623.26.8l.76.8c.096.103.15.265.15.462v1.222l1.091-.63v-2.104c0-.469-.146-.837-.41-1.033l-.667-.5M118.99 68.774c-.19.11-.344.383-.344.61v2.038l-.065.23-.687 1.271-.085.093-.088.004.007-.198.7-1.292.074-.303-.082-.129c-.081-.033-.2.044-.268.178l-.67 1.272c-.263.501-.409 1.038-.409 1.506v2.103l1.092-.63v-1.222c0-.197.053-.42.151-.636l.758-1.673c.17-.374.261-.76.261-1.102v-1.908c0-.226-.155-.322-.344-.212"/>
        <path fill="#7F6B59" d="M112.361 79.954l8.223-4.746v-9.806l-8.223 4.746v9.806zm8.363-4.492l-8.505 4.91-.14-.086V70.143l.14-.25 8.505-4.909.14.086v10.143l-.14.25zM128.641 67.987L128.641 64.776 129.283 64.405 128.088 62.698 126.891 65.785 127.535 65.415 127.535 68.624 125.968 69.529 125.968 66.319 126.61 65.948 125.415 64.242 124.22 67.328 124.863 66.957 124.863 70.167 123.999 70.666 123.999 72.176 129.544 68.974 129.544 67.465 128.641 67.987"/>
        <path fill="#7F6B59" d="M122.66 74.293l8.223-4.746V59.74l-8.223 4.746v9.806zm8.365-4.492l-8.505 4.91-.142-.086V64.482l.142-.25 8.505-4.909.14.086v10.143l-.14.25z"/>
    </g>
</svg>
