<?xml version="1.0" encoding="utf-8"?>
<!-- Generator: Adobe Illustrator 24.3.0, SVG Export Plug-In . SVG Version: 6.00 Build 0)  -->
<svg version="1.1" id="Layer_1" xmlns="http://www.w3.org/2000/svg" xmlns:xlink="http://www.w3.org/1999/xlink" x="0px" y="0px"
	 viewBox="0 0 100 105" style="enable-background:new 0 0 100 105;" xml:space="preserve">
<style type="text/css">
	.st0{fill:#fff;}
</style>
<g>
	<path class="st0" d="M73.89,36.87h-5.73v-10.9c0-1.41-1.15-2.57-2.57-2.57H36.04c-1.41,0-2.57,1.15-2.57,2.57v10.9h-5.73
		c-2.87,0-5.21,2.34-5.21,5.21v19.96c0,2.87,2.34,5.21,5.21,5.21h5.73v10.07c0,1.41,1.15,2.57,2.57,2.57H65.6
		c1.41,0,2.57-1.15,2.57-2.57V67.25h5.73c2.87,0,5.21-2.34,5.21-5.21V42.08C79.1,39.21,76.77,36.87,73.89,36.87z M63.03,59.69
		c0,2.55,0,12.53,0,15.07H38.61V59.69H63.03z M38.61,36.87v-8.34h24.42v8.34H38.61z M65.6,54.56H36.04c-1.41,0-2.57,1.15-2.57,2.57
		v5h-5.73c-0.04,0-0.08-0.04-0.08-0.08V42.08c0-0.04,0.04-0.08,0.08-0.08h46.15c0.04,0,0.08,0.04,0.08,0.08l0,19.96
		c0,0.04-0.04,0.08-0.08,0.08h-5.73v-5C68.16,55.71,67.01,54.56,65.6,54.56z"/>
	<path class="st0" d="M68.26,44.55h-5.05c-1.41,0-2.57,1.15-2.57,2.57c0,1.41,1.15,2.57,2.57,2.57h5.05c1.41,0,2.57-1.15,2.57-2.57
		C70.82,45.7,69.67,44.55,68.26,44.55z"/>
	<path class="st0" d="M44.28,69.79h13.08c1.41,0,2.57-1.15,2.57-2.57c0-1.41-1.15-2.57-2.57-2.57H44.28c-1.41,0-2.57,1.15-2.57,2.57
		C41.72,68.64,42.87,69.79,44.28,69.79z"/>
</g>
<path class="st0" d="M96.1,30.28c-2.51-5.93-6.1-11.26-10.68-15.84S75.51,6.28,69.58,3.77c-6.15-2.6-12.67-3.92-19.4-3.92
	s-13.25,1.32-19.4,3.92c-5.93,2.51-11.26,6.1-15.84,10.68S6.77,24.35,4.26,30.28c-2.6,6.15-3.92,12.67-3.92,19.4
	c0,1.28,1.04,2.33,2.33,2.33s2.33-1.04,2.33-2.33c0-6.1,1.19-12.02,3.55-17.59c2.28-5.38,5.53-10.21,9.68-14.36
	s8.98-7.41,14.36-9.68C38.16,5.69,44.08,4.5,50.18,4.5S62.2,5.69,67.77,8.05c5.38,2.28,10.21,5.53,14.36,9.68s7.41,8.98,9.68,14.36
	c2.36,5.57,3.55,11.49,3.55,17.59c0,6.1-1.19,12.02-3.55,17.59c-2.28,5.38-5.53,10.21-9.68,14.36s-8.98,7.41-14.36,9.68
	c-5.57,2.36-11.49,3.55-17.59,3.55c0,0,0,0,0,0v-3.69c0-1.38-1.49-2.24-2.68-1.55l-10.42,6.02c-1.19,0.69-1.19,2.41,0,3.1
	l10.42,6.02c1.19,0.69,2.68-0.17,2.68-1.55v-3.69c0,0,0,0,0,0c6.73,0,13.25-1.32,19.4-3.92c5.93-2.51,11.26-6.1,15.84-10.68
	s8.17-9.91,10.68-15.84c2.6-6.15,3.92-12.67,3.92-19.4S98.7,36.43,96.1,30.28z"/>
</svg>
